<svg width="1094" height="389" viewBox="0 0 1094 389" xmlns="http://www.w3.org/2000/svg"><path d="M-163.813-370.741S-40.493-197.99-23.194-79.178c15.133 103.928 88.283 218.08 272.915 234.9 184.632 16.822 247.352-75.746 414.16 28.12 166.806 103.865 179.33 278.007 430.663 172.18 251.332-105.827 383.362 69.674 383.362 69.674l52.903-95.44s-83.308-54.138-170.275-250.584c-86.965-196.445-202.052-250.474-274.39-252.823-59.463-1.93-254.566 18.805-397.706-47.506-134.313-62.224-190.654-117.545-270.595-184.202-99.514-82.978-180.309-48.633-255.887-39.213-75.577 9.42-230.898-33.62-256.284-37.861l-69.485 111.192z" fill="#16264D" fill-rule="evenodd"/></svg>